<svg width="320" height="96" viewBox="0 0 320 96" fill="none" xmlns="http://www.w3.org/2000/svg" role="img" aria-labelledby="title desc">
  <title id="title">DR MART by DR Group</title>
  <desc id="desc">Premium commerce logo with a DR monogram and DR MART wordmark.</desc>
  <defs>
    <linearGradient id="mark" x1="8" y1="8" x2="88" y2="88" gradientUnits="userSpaceOnUse">
      <stop stop-color="#0C3B35"/>
      <stop offset="0.58" stop-color="#176E63"/>
      <stop offset="1" stop-color="#D1A04F"/>
    </linearGradient>
    <linearGradient id="gold" x1="101" y1="18" x2="270" y2="70" gradientUnits="userSpaceOnUse">
      <stop stop-color="#F7DFA7"/>
      <stop offset="0.5" stop-color="#C99646"/>
      <stop offset="1" stop-color="#76512A"/>
    </linearGradient>
    <filter id="shadow" x="-10" y="-8" width="116" height="116" color-interpolation-filters="sRGB" filterUnits="userSpaceOnUse">
      <feDropShadow dx="0" dy="14" stdDeviation="12" flood-color="#0C3B35" flood-opacity="0.22"/>
    </filter>
  </defs>

  <rect width="320" height="96" rx="18" fill="#FFF9EF"/>
  <g filter="url(#shadow)">
    <rect x="12" y="12" width="72" height="72" rx="22" fill="url(#mark)"/>
    <path d="M27 61V35h11.6c8 0 13.4 5.2 13.4 13s-5.4 13-13.4 13H27Zm8.4-7.1h2.8c3.2 0 5.2-2.2 5.2-5.9 0-3.6-2-5.9-5.2-5.9h-2.8v11.7Z" fill="#FFF9EF"/>
    <path d="M54 61V35h13.1c6.1 0 10.1 3.4 10.1 8.6 0 3.3-1.6 5.9-4.5 7.3l5.4 10.1h-9.2l-4.4-8.5h-2.4V61H54Zm8.1-15.3h4.6c1.5 0 2.4-.8 2.4-2.1 0-1.3-.9-2.1-2.4-2.1h-4.6v4.2Z" fill="#FFF9EF"/>
    <path d="M26 70H70" stroke="#F2D599" stroke-width="3" stroke-linecap="round"/>
  </g>

  <text x="102" y="65" fill="#14211E" font-family="Aptos Display, Aptos, Inter, Segoe UI, Arial, sans-serif" font-size="40" font-weight="900" letter-spacing="1.2">DR M</text>
  <text x="211" y="65" fill="url(#gold)" font-family="Aptos Display, Aptos, Inter, Segoe UI, Arial, sans-serif" font-size="40" font-weight="900" letter-spacing="1.2">A</text>
  <text x="241" y="65" fill="#14211E" font-family="Aptos Display, Aptos, Inter, Segoe UI, Arial, sans-serif" font-size="40" font-weight="900" letter-spacing="1.2">RT</text>
  <path d="M103 78H316" stroke="#D8C3A0" stroke-width="1.5" stroke-linecap="round"/>
  <text x="104" y="23" fill="#7A6040" font-family="Aptos, Inter, Segoe UI, Arial, sans-serif" font-size="10" font-weight="800" letter-spacing="3.2">BY DR GROUP</text>
</svg>
